HIERARCHY
ROOT Hips
{
 OFFSET 0.000000 0.000000 0.000000
 CHANNELS 6 Xposition Yposition Zposition Yrotation Xrotation Zrotation
 JOINT Chest
 {
  OFFSET 0.000000 9.585900 0.002600
  CHANNELS 3 Yrotation Xrotation Zrotation
  JOINT Chest2
  {
   OFFSET 0.000000 9.601200 -0.005300
   CHANNELS 3 Yrotation Xrotation Zrotation
   JOINT Chest3
   {
    OFFSET 0.000000 9.561800 0.000000
    CHANNELS 3 Yrotation Xrotation Zrotation
    JOINT Chest4
    {
     OFFSET 0.000000 9.552100 0.000000
     CHANNELS 3 Yrotation Xrotation Zrotation
     JOINT Neck
     {
      OFFSET 0.000000 14.453000 0.000000
      CHANNELS 3 Yrotation Xrotation Zrotation
      JOINT Head
      {
       OFFSET 0.000000 8.936500 -0.011300
       CHANNELS 3 Yrotation Xrotation Zrotation
       End Site
       {
        OFFSET 0.000000 17.073600 -0.006000
       }
      }
     }
     JOINT RightCollar
     {
      OFFSET -2.921100 9.558500 0.000000
      CHANNELS 3 Yrotation Xrotation Zrotation
      JOINT RightShoulder
      {
       OFFSET -13.519700 0.000000 0.000000
       CHANNELS 3 Yrotation Xrotation Zrotation
       JOINT RightElbow
       {
        OFFSET 0.000000 -29.696600 0.000000
        CHANNELS 3 Yrotation Xrotation Zrotation
        JOINT RightWrist
        {
         OFFSET 0.000000 -24.004700 0.000000
         CHANNELS 3 Yrotation Xrotation Zrotation
         End Site
         {
          OFFSET 0.000000 -17.728500 0.000000
         }
        }
       }
      }
     }
     JOINT LeftCollar
     {
      OFFSET 2.921100 9.558500 0.000000
      CHANNELS 3 Yrotation Xrotation Zrotation
      JOINT LeftShoulder
      {
       OFFSET 13.519700 0.000000 0.000000
       CHANNELS 3 Yrotation Xrotation Zrotation
       JOINT LeftElbow
       {
        OFFSET 0.000000 -29.696600 0.000000
        CHANNELS 3 Yrotation Xrotation Zrotation
        JOINT LeftWrist
        {
         OFFSET 0.000000 -24.004700 0.000000
         CHANNELS 3 Yrotation Xrotation Zrotation
         End Site
         {
          OFFSET 0.000000 -17.728500 0.000000
         }
        }
       }
      }
     }
    }
   }
  }
 }
 JOINT RightHip
 {
  OFFSET -7.771700 -0.012900 -0.001300
  CHANNELS 3 Yrotation Xrotation Zrotation
  JOINT RightKnee
  {
   OFFSET 0.000000 -40.869800 0.001200
   CHANNELS 3 Yrotation Xrotation Zrotation
   JOINT RightAnkle
   {
    OFFSET 0.000000 -39.717900 0.002100
    CHANNELS 3 Yrotation Xrotation Zrotation
    JOINT RightToe
    {
     OFFSET 0.000000 -4.965400 11.033500
     CHANNELS 3 Yrotation Xrotation Zrotation
     End Site
     {
      OFFSET 0.000000 -1.423100 5.872300
     }
    }
   }
  }
 }
 JOINT LeftHip
 {
  OFFSET 7.771700 -0.012900 -0.001300
  CHANNELS 3 Yrotation Xrotation Zrotation
  JOINT LeftKnee
  {
   OFFSET 0.000000 -40.869800 0.001200
   CHANNELS 3 Yrotation Xrotation Zrotation
   JOINT LeftAnkle
   {
    OFFSET 0.000000 -39.717900 0.002100
    CHANNELS 3 Yrotation Xrotation Zrotation
    JOINT LeftToe
    {
     OFFSET 0.000000 -4.965400 11.033500
     CHANNELS 3 Yrotation Xrotation Zrotation
     End Site
     {
      OFFSET 0.000000 -1.423100 5.872300
     }
    }
   }
  }
 }
}
MOTION
Frames: 12
Frame Time: 0.008333
-130.354441 57.964526 107.781857 175.717140 -27.146533 -1.242889 1.554808 18.735372 1.820714 0.206446 2.188699 0.187711 0.248007 3.607676 0.340908 1.364359 16.272642 1.699372 -0.492933 13.751626 -1.720843 -0.279807 -10.231820 -3.014278 3.744232 -3.013073 -0.427179 12.959361 -18.041583 -19.035602 156.467843 -79.375653 -115.446798 10.140414 -8.400558 -29.979924 -8.496024 -3.705688 -4.861112 -6.666561 -16.974855 2.966108 36.114386 -24.378793 -73.723571 9.025314 -12.542175 29.950633 -1.719782 -48.740800 1.527724 -16.552555 65.930482 -20.425705 11.790379 25.295383 4.899172 -0.152510 -17.175397 1.197174 -3.419342 -45.510264 0.525724 22.424660 66.972339 20.566544 -17.472429 2.712789 0.079387 0.010355 0.095951 0.016848
-130.354095 57.965175 107.784338 175.751983 -27.158684 -1.229843 1.568716 18.748988 1.794811 0.206282 2.193148 0.185435 0.265297 3.615847 0.333209 1.337029 16.269346 1.711596 -0.484577 13.707120 -1.750146 -0.324303 -10.257515 -2.961221 3.743620 -3.016641 -0.426503 12.969342 -18.041220 -19.044129 156.397738 -79.381639 -115.315308 10.126914 -8.399087 -29.975836 -8.435857 -3.666391 -4.902848 -6.664292 -16.991104 2.954403 36.105476 -24.365491 -73.727972 9.020263 -12.549976 29.954915 -1.689246 -48.732593 1.493261 -16.502619 65.941646 -20.417013 11.784523 25.314130 4.949064 -0.172367 -17.201574 1.204232 -3.397661 -45.495645 0.490497 22.402430 66.961803 20.530561 -17.480710 2.718091 0.085677 0.000904 0.103890 0.027342
-130.350779 57.965748 107.786740 175.780816 -27.170902 -1.236056 1.641782 18.764959 1.794819 0.136759 2.190180 0.203339 0.291046 3.624275 0.324068 1.393873 16.296098 1.670031 -0.545766 13.652749 -1.678811 -0.346913 -10.455061 -2.987523 3.754674 -3.027592 -0.420625 12.946855 -18.055342 -19.045179 156.403322 -79.394061 -115.352907 10.111323 -8.393227 -29.946072 -8.450947 -3.650940 -4.872761 -6.716048 -17.011546 2.981300 36.157766 -24.333771 -73.746458 9.016034 -12.553539 29.959063 -1.668161 -48.728276 1.503098 -16.571209 65.940910 -20.506451 11.767920 25.353386 4.940465 -0.173965 -17.242762 1.245289 -3.392515 -45.480404 0.484715 22.372070 66.954922 20.493831 -17.496455 2.720232 0.096767 0.003842 0.106990 0.023550
-130.348580 57.966278 107.788372 175.803818 -27.185147 -1.237269 1.654059 18.781038 1.790631 0.127340 2.191082 0.203074 0.314991 3.632647 0.316875 1.404586 16.306917 1.656216 -0.573319 13.615695 -1.652568 -0.364750 -10.591770 -3.004829 3.780578 -3.027965 -0.428735 12.960743 -18.056075 -19.069813 156.416518 -79.405331 -115.396265 10.098476 -8.386253 -29.922116 -8.439430 -3.637268 -4.872178 -6.665950 -17.009926 2.938550 36.131167 -24.341081 -73.746186 9.014853 -12.552884 29.958695 -1.657220 -48.719088 1.500443 -16.596576 65.944600 -20.551002 11.765523 25.368789 4.956764 -0.175662 -17.262779 1.255297 -3.381546 -45.463487 0.474372 22.324457 66.954561 20.448303 -17.503175 2.712081 0.094574 0.013108 0.107889 0.022384
-130.348951 57.966568 107.789383 175.852362 -27.198675 -1.239126 1.616045 18.796491 1.771638 0.161575 2.196652 0.196161 0.317386 3.637011 0.313493 1.413475 16.314952 1.644337 -0.589198 13.568440 -1.649521 -0.393566 -10.678323 -2.997140 3.775373 -3.036555 -0.417711 12.988964 -18.050142 -19.096239 156.424806 -79.412142 -115.409275 10.089860 -8.380227 -29.908957 -8.428963 -3.622980 -4.871713 -6.622978 -17.008695 2.900309 36.109460 -24.350297 -73.747826 9.001860 -12.535037 29.958380 -1.651783 -48.709715 1.471576 -16.647291 65.947102 -20.602941 11.764088 25.384037 4.949222 -0.163575 -17.282949 1.271283 -3.381477 -45.445757 0.448623 22.292431 66.946372 20.408700 -17.521520 2.708439 0.101967 0.019084 0.116570 0.023764
-130.350480 57.966290 107.790542 175.880649 -27.207853 -1.229040 1.629060 18.810155 1.754011 0.208864 2.204960 0.185477 0.275687 3.633158 0.322577 1.435363 16.326658 1.626814 -0.598507 13.501296 -1.671100 -0.444666 -10.736781 -2.955647 3.726799 -3.058727 -0.377106 13.051053 -18.033825 -19.135074 156.425470 -79.416640 -115.415611 10.083435 -8.372376 -29.903367 -8.450288 -3.618372 -4.848389 -6.592548 -17.009247 2.873300 36.114340 -24.352381 -73.755754 8.964489 -12.482791 29.959979 -1.620953 -48.704509 1.437504 -16.666354 65.955663 -20.642110 11.772042 25.378453 4.982309 -0.169598 -17.288722 1.274516 -3.359675 -45.436060 0.420981 22.270445 66.943368 20.372870 -17.540128 2.710876 0.121214 0.025351 0.119547 0.021438
-130.354326 57.966153 107.790431 175.916031 -27.221098 -1.211357 1.635157 18.828135 1.726921 0.206825 2.205842 0.183659 0.278551 3.636672 0.320673 1.432663 16.328690 1.624267 -0.597517 13.461302 -1.694710 -0.484120 -10.757049 -2.916909 3.751927 -3.059234 -0.386912 13.016793 -18.044754 -19.124613 156.421586 -79.410437 -115.380040 10.075494 -8.367140 -29.899135 -8.433858 -3.604335 -4.857589 -6.585490 -17.013075 2.859640 36.116115 -24.358895 -73.759311 9.000330 -12.543224 29.973260 -1.580956 -48.693843 1.388317 -16.652914 65.974706 -20.671873 11.783150 25.347629 5.054123 -0.196044 -17.280814 1.268561 -3.335714 -45.423462 0.377345 22.257875 66.937996 20.346171 -17.554140 2.718411 0.132875 0.022564 0.121793 0.027209
-130.356381 57.965390 107.791162 175.943904 -27.227102 -1.204107 1.646740 18.836078 1.711064 0.208396 2.209733 0.184301 0.282007 3.640625 0.318902 1.404774 16.321942 1.632923 -0.594323 13.447546 -1.706525 -0.492509 -10.860153 -2.958104 3.838236 -3.038674 -0.437135 12.999784 -18.055991 -19.125847 156.414326 -79.409812 -115.398813 10.068555 -8.368647 -29.897095 -8.378978 -3.581606 -4.895176 -6.601071 -17.023114 2.859406 36.116374 -24.367057 -73.758292 9.013472 -12.566376 29.978983 -1.566203 -48.688537 1.358482 -16.656358 65.987024 -20.694614 11.795561 25.318364 5.082588 -0.216877 -17.267634 1.273278 -3.323203 -45.418488 0.354857 22.242650 66.931636 20.319477 -17.570150 2.729281 0.140096 0.028531 0.117848 0.029612
-130.356245 57.964527 107.791887 175.957816 -27.232402 -1.205774 1.715450 18.846570 1.721221 0.151493 2.205810 0.192383 0.304351 3.646816 0.314231 1.421807 16.331247 1.622186 -0.624076 13.418368 -1.688821 -0.498990 -10.964853 -3.005602 3.847320 -3.046988 -0.435792 12.985478 -18.062273 -19.126702 156.408255 -79.410965 -115.416120 10.067333 -8.382216 -29.868507 -8.384096 -3.578534 -4.887331 -6.599452 -17.032522 2.851360 36.083659 -24.378209 -73.749220 9.014994 -12.568193 29.981833 -1.529033 -48.684603 1.345313 -16.706364 65.994319 -20.750334 11.794661 25.291888 5.098726 -0.215502 -17.255013 1.283142 -3.314545 -45.408933 0.354742 22.218045 66.926401 20.283713 -17.566744 2.720926 0.144471 0.029312 0.129328 0.036379
-130.357001 57.963707 107.792001 175.973933 -27.239725 -1.204768 1.735293 18.855060 1.721334 0.136274 2.207335 0.192497 0.324328 3.650075 0.311078 1.464962 16.348690 1.606524 -0.660325 13.373482 -1.682815 -0.523884 -11.039092 -3.020111 3.793309 -3.071204 -0.402252 12.996886 -18.060726 -19.135660 156.394268 -79.410839 -115.405671 10.068518 -8.397125 -29.848770 -8.438059 -3.589481 -4.851886 -6.568363 -17.038038 2.831890 36.054874 -24.387569 -73.742938 9.016658 -12.564712 29.984266 -1.484812 -48.679909 1.323914 -16.752319 66.000174 -20.798806 11.781651 25.278121 5.112865 -0.197100 -17.251024 1.288414 -3.303468 -45.400175 0.348691 22.192174 66.924397 20.248473 -17.579661 2.720216 0.154454 0.042568 0.126430 0.033336
-130.359781 57.962619 107.792138 175.994163 -27.244811 -1.195448 1.746186 18.860806 1.710359 0.140359 2.209666 0.192044 0.315102 3.650060 0.311105 1.497361 16.356163 1.595083 -0.682941 13.337180 -1.688035 -0.549529 -11.061505 -3.006898 3.758886 -3.080810 -0.379395 13.033201 -18.054685 -19.160446 156.392858 -79.391971 -115.359401 10.058158 -8.388128 -29.905676 -8.437780 -3.578750 -4.846699 -6.580398 -17.048568 2.832424 36.065701 -24.394687 -73.742915 9.012902 -12.560731 29.983928 -1.460260 -48.676220 1.292855 -16.733227 66.009473 -20.792551 11.767844 25.269927 5.134891 -0.196536 -17.249612 1.286791 -3.287328 -45.391895 0.326939 22.162973 66.918305 20.206507 -17.588123 2.722096 0.168578 0.042579 0.133650 0.034226
-130.363001 57.960865 107.793282 176.012880 -27.242474 -1.185346 1.740450 18.859185 1.694584 0.192054 2.212411 0.185603 0.256667 3.647558 0.320193 1.546843 16.362312 1.579964 -0.686815 13.278090 -1.729017 -0.586359 -11.130511 -3.014213 3.743871 -3.083140 -0.360780 13.102453 -18.043446 -19.200711 156.339236 -79.389461 -115.373837 10.046434 -8.380722 -29.925038 -8.441448 -3.565135 -4.837835 -6.591413 -17.059713 2.833525 36.076017 -24.400537 -73.754225 9.011517 -12.612148 29.992982 -1.433344 -48.679850 1.260530 -16.699367 66.019585 -20.769181 11.742394 25.261881 5.145526 -0.195219 -17.245951 1.292668 -3.276204 -45.393321 0.307997 22.164292 66.909056 20.187307 -17.599450 2.728516 0.185372 0.039703 0.133163 0.032226
